<svg aria-hidden="true" style="position: absolute; width: 0; height: 0; overflow: hidden;" version="1.1" xmlns="http://www.w3.org/2000/svg" xmlns:xlink="http://www.w3.org/1999/xlink">
<defs>
<symbol id="icon-contacts-line" viewBox="0 0 32 32">
<path d="M25.333 9.333h6.667v2.667h-6.667v-2.667zM22.667 16h9.333v2.667h-9.333v-2.667zM26.667 22.667h5.333v2.667h-5.333v-2.667zM2.667 29.333c0-5.891 4.776-10.667 10.667-10.667s10.667 4.776 10.667 10.667v0h-2.667c0-4.418-3.582-8-8-8s-8 3.582-8 8v0h-2.667zM13.333 17.333c-4.42 0-8-3.58-8-8s3.58-8 8-8 8 3.58 8 8-3.58 8-8 8zM13.333 14.667c2.947 0 5.333-2.387 5.333-5.333s-2.387-5.333-5.333-5.333-5.333 2.387-5.333 5.333 2.387 5.333 5.333 5.333z"></path>
</symbol>
<symbol id="icon-github-fill" viewBox="0 0 32 32">
<path d="M16 2.667c-7.367 0-13.333 5.967-13.333 13.333 0 0.002 0 0.005 0 0.007 0 5.854 3.775 10.826 9.024 12.616l0.094 0.028c0.667 0.116 0.916-0.284 0.916-0.635 0-0.316-0.017-1.365-0.017-2.483-3.349 0.617-4.216-0.816-4.483-1.567-0.151-0.384-0.8-1.567-1.367-1.884-0.467-0.249-1.133-0.867-0.017-0.883 1.051-0.017 1.8 0.967 2.051 1.367 1.2 2.016 3.117 1.449 3.883 1.1 0.117-0.867 0.467-1.449 0.851-1.783-2.967-0.333-6.067-1.484-6.067-6.584 0-1.451 0.516-2.649 1.367-3.584-0.133-0.333-0.6-1.7 0.133-3.533 0 0 1.116-0.349 3.667 1.368 0.992-0.286 2.131-0.451 3.309-0.451 0.009 0 0.017 0 0.026 0h-0.001c1.133 0 2.267 0.149 3.333 0.449 2.549-1.733 3.667-1.365 3.667-1.365 0.733 1.833 0.267 3.2 0.133 3.533 0.849 0.933 1.367 2.116 1.367 3.583 0 5.117-3.116 6.251-6.083 6.584 0.483 0.416 0.9 1.216 0.9 2.467 0 1.783-0.017 3.216-0.017 3.667 0 0.349 0.251 0.765 0.917 0.632 5.324-1.837 9.081-6.804 9.083-12.649v-0c0-7.367-5.967-13.333-13.333-13.333z"></path>
</symbol>
<symbol id="icon-linkedin-box-fill" viewBox="0 0 32 32">
<path  d="M24.447 24.452h-3.553v-5.569c0-1.328-0.027-3.037-1.853-3.037-1.852 0-2.135 1.445-2.135 2.94v5.667h-3.555v-11.452h3.413v1.56h0.047c0.477-0.899 1.637-1.849 3.371-1.849 3.6 0 4.267 2.371 4.267 5.455v6.287zM9.337 11.433c-0.001 0-0.002 0-0.003 0-1.138 0-2.061-0.923-2.061-2.061 0-0.001 0-0.003 0-0.004v0c0.001-1.139 0.925-2.063 2.064-2.063s2.064 0.924 2.064 2.064-0.924 2.064-2.064 2.064c-0 0-0.001 0-0.001 0h0zM11.119 24.452h-3.564v-11.452h3.565v11.452zM26.227 4h-20.455c-0.981 0-1.772 0.773-1.772 1.729v20.541c0 0.956 0.792 1.729 1.771 1.729h20.451c0.979 0 1.779-0.773 1.779-1.729v-20.541c0-0.956-0.8-1.729-1.779-1.729h0.004z"></path>
</symbol>
<symbol id="icon-mail-send-line" viewBox="0 0 32 32">
<path d="M29.333 26.676c-0.005 0.729-0.594 1.318-1.322 1.324h-24.022c-0.731-0.001-1.323-0.593-1.323-1.324v0-1.343h24v-15.6l-10.667 9.6-13.333-12v-2c0-0.736 0.597-1.333 1.333-1.333v0h24c0.736 0 1.333 0.597 1.333 1.333v0 21.343zM5.912 6.667l10.088 9.080 10.088-9.080h-20.176zM0 20h10.667v2.667h-10.667v-2.667zM0 13.333h6.667v2.667h-6.667v-2.667z"></path>
</symbol>
<symbol id="icon-home" viewBox="0 0 32 32">
<path d="M32 18.451l-16-12.42-16 12.42v-5.064l16-12.42 16 12.42zM28 18v12h-8v-8h-8v8h-8v-12l12-9z"></path>
</symbol>
</defs>
</svg>
